<?xml version="1.0" encoding="UTF-8" standalone="no"?>
<!-- Created with Inkscape (http://www.inkscape.org/) -->

<svg
   xmlns:dc="http://purl.org/dc/elements/1.1/"
   xmlns:cc="http://creativecommons.org/ns#"
   xmlns:rdf="http://www.w3.org/1999/02/22-rdf-syntax-ns#"
   xmlns:svg="http://www.w3.org/2000/svg"
   xmlns="http://www.w3.org/2000/svg"
   xmlns:sodipodi="http://sodipodi.sourceforge.net/DTD/sodipodi-0.dtd"
   xmlns:inkscape="http://www.inkscape.org/namespaces/inkscape"
   width="233.60001"
   height="233.60001"
   id="svg6675"
   version="1.1"
   inkscape:version="0.48.5 r10040"
   sodipodi:docname="New document 10">
  <defs
     id="defs6677">
    <clipPath
       clipPathUnits="userSpaceOnUse"
       id="clipPath3128">
      <path
         d="m 0,3023 1300,0 L 1300,0 0,0 0,3023 z"
         clip-rule="evenodd"
         id="path3130"
         inkscape:connector-curvature="0" />
    </clipPath>
    <clipPath
       clipPathUnits="userSpaceOnUse"
       id="clipPath3140">
      <path
         d="m 0,3023 1300,0 L 1300,0 0,0 0,3023 z"
         clip-rule="evenodd"
         id="path3142"
         inkscape:connector-curvature="0" />
    </clipPath>
    <clipPath
       clipPathUnits="userSpaceOnUse"
       id="clipPath3146">
      <path
         d="m 883.6574,2115.03 c -18.8097,-9.75 -18.8097,-9.75 -36.6834,-3.51 -2.6778,0.909 -5.7586,1.95 -9.3334,3.119 l 0,15.861 9.0994,0 c 4.8617,0 9.3983,-1.69 13.4931,-4.94 0.2209,-0.131 0.5069,-0.26 0.7929,-0.26 l 5.5766,0 4.8357,0 c 1.8978,0 2.5738,-1.43 2.5738,-2.6 0,-1.3 -0.676,-2.6 -2.5738,-2.6 l -18.1988,0 c -0.7149,0 -1.2999,-0.65 -1.2999,-1.3 0,-0.78 0.585,-1.3 1.2999,-1.3 l 18.1988,0 c 1.8068,0 3.1457,0.65 4.0167,1.82 l 13.87,4.55 c 2.4958,0.78 4.4847,0.13 7.1625,-2.21 -5.0956,-2.6 -9.3463,-4.81 -12.8301,-6.63 l 0,0 z m -59.0159,18.07 10.3993,0 0,-20.8 -10.3993,0 0,20.8 z m 75.0178,-10.79 c -2.9508,2.86 -6.3306,5.46 -11.1012,4.029 l -11.9722,-3.9 c 0.013,0 0.026,0.131 0.026,0.261 0,2.6 -1.7809,5.2 -5.1736,5.2 l -4.8487,0 -5.0956,0 c -4.4717,3.379 -9.4374,5.2 -14.754,5.2 l -9.0994,0 0,1.3 c 0,0.65 -0.5849,1.3 -1.2999,1.3 l -12.9991,0 c -0.7149,0 -1.2999,-0.65 -1.2999,-1.3 l 0,-23.4 c 0,-0.78 0.585,-1.3 1.2999,-1.3 l 12.9991,0 c 0.715,0 1.2999,0.52 1.2999,1.3 l 0,0.91 c 3.2108,-1.04 6.0186,-2.081 8.4754,-2.86 8.3195,-2.99 13.0121,-4.55 17.3798,-4.55 5.4856,0 10.4383,2.6 21.3575,8.32 3.8478,1.95 8.6444,4.419 14.468,7.409 0.364,0.131 0.624,0.521 0.702,0.91 0.065,0.39 -0.078,0.781 -0.364,1.171 l 0,0 z"
         clip-rule="evenodd"
         id="path3148"
         inkscape:connector-curvature="0" />
    </clipPath>
    <clipPath
       clipPathUnits="userSpaceOnUse"
       id="clipPath3156">
      <path
         d="m 0,3023 1300,0 L 1300,0 0,0 0,3023 z"
         clip-rule="evenodd"
         id="path3158"
         inkscape:connector-curvature="0" />
    </clipPath>
    <clipPath
       clipPathUnits="userSpaceOnUse"
       id="clipPath3162">
      <path
         d="m 885.4773,2172.1 c -0.416,-1.43 -1.6249,-5.071 -4.4587,-6.63 -4.1077,0.78 -7.9684,-1.431 -8.8524,-2.6 -0.5979,-0.65 -0.39,-1.3 -0.273,-1.56 0.195,-0.39 0.546,-0.65 0.988,-0.781 0.3769,-0.519 1.0009,-2.079 1.3779,-3.639 0.052,-0.261 0.169,-0.39 0.3379,-0.651 1.092,-1.039 2.5999,-0.91 3.6658,-0.65 -0.065,-1.3 -2.0669,-3.379 -3.2368,-4.549 -1.2609,-1.301 -1.9498,-2.08 -1.9498,-2.99 0,-1.04 0.7279,-1.561 1.2609,-2.08 0.104,-0.131 0.2339,-0.26 0.3379,-0.26 -0.026,-0.131 -0.052,-0.131 -0.078,-0.131 -1.4429,-1.429 -2.8987,-1.95 -2.9117,-1.95 -0.533,-0.129 -0.884,-0.65 -0.884,-1.299 0,-2.86 -1.7939,-4.291 -5.3296,-4.291 -0.754,0.521 -2.2749,3.511 -2.3398,4.291 0,0.259 0.2339,0.78 0.4419,1.17 0.325,0.65 0.702,1.429 0.702,2.339 0,1.301 -1.2999,2.861 -2.3009,3.9 -0.078,1.431 -0.4939,2.471 -1.2609,3.251 -1.3389,1.299 -3.3017,1.17 -5.1866,1.04 -0.546,0 -1.1049,-0.13 -1.6769,-0.13 -2.0669,0 -2.1189,3.12 -2.1189,3.25 0,0.129 0.078,7.02 4.6667,7.929 3.1848,0.651 4.0297,0 4.1467,-0.129 0.039,-0.26 0.169,-0.521 0.377,-0.65 2.0929,-2.08 5.3686,-1.43 7.7605,-0.78 0.8839,0.13 1.7288,0.39 2.2748,0.39 0.65,0 1.1959,0.39 1.2869,1.04 0.442,3.12 0.637,7.02 -0.9099,8.189 -0.598,0.391 -1.3649,0.391 -2.1059,0 -0.7669,-0.389 -1.4819,-0.389 -1.9498,-0.129 -0.52,0.26 -0.676,0.91 -0.728,1.43 -0.117,1.299 4.3157,3.249 8.5144,4.16 4.0167,-1.3 7.5655,-3.511 10.4123,-6.5 l 0,0 z m -39.6992,-31.2 c 0.6109,0.39 0.8189,1.17 0.4549,1.689 -3.3407,5.721 -4.2637,12.351 -2.5998,18.85 1.6639,6.371 5.7196,11.7 11.4002,14.951 4.4847,2.73 9.5543,3.77 14.624,3.38 -3.0028,-1.17 -5.9406,-2.991 -5.6936,-5.591 0.143,-1.559 0.8709,-2.859 2.0538,-3.509 1.079,-0.52 2.4569,-0.52 3.8218,0 0.156,-0.91 0.143,-2.6 -0.039,-4.291 -0.546,-0.129 -1.1179,-0.259 -1.7029,-0.39 -1.8589,-0.389 -3.9517,-0.91 -5.0956,-0.129 -0.143,0.39 -0.403,0.78 -0.832,1.169 -1.2089,1.041 -3.2628,1.171 -6.2915,0.521 -6.6686,-1.3 -6.7466,-10.011 -6.7466,-10.4 0,-1.95 0.988,-5.85 4.7187,-5.85 0.611,0 1.2349,0.129 1.8199,0.129 1.4039,0 2.7298,0.131 3.2497,-0.389 0.39,-0.39 0.481,-1.17 0.481,-1.82 0,-0.391 0.13,-0.65 0.377,-0.91 0.9229,-0.91 1.8329,-2.08 1.8979,-2.471 0,-0.26 -0.234,-0.779 -0.429,-1.169 -0.338,-0.65 -0.715,-1.43 -0.715,-2.34 0,-1.17 2.3659,-6.89 4.7317,-6.89 4.7447,0 7.7085,2.21 8.0984,6.11 0.754,0.389 1.9239,1.039 3.0678,2.21 0.65,0.65 0.962,1.3 0.936,1.95 -0.039,1.04 -0.819,1.819 -1.326,2.21 -0.0519,0 -0.1039,0.13 -0.1689,0.13 0.2729,0.389 0.6889,0.779 1.0269,1.17 2.1838,2.209 5.8366,5.98 2.9638,8.84 -0.403,0.519 -1.001,0.519 -1.5079,0.26 -0.468,-0.131 -1.2739,-0.39 -1.7029,-0.26 -0.52,1.95 -1.0659,3.119 -1.5729,3.77 1.2609,0.78 3.5878,1.559 5.8236,0.91 0.299,0 0.624,0 0.8969,0.13 3.1198,1.559 4.7967,4.68 5.6416,6.89 0.494,-0.65 0.962,-1.431 1.4039,-2.08 3.3408,-5.72 4.2638,-12.351 2.5999,-18.72 -1.6639,-6.371 -5.7196,-11.831 -11.4002,-15.081 -0.624,-0.389 -0.832,-1.169 -0.468,-1.819 0.247,-0.39 0.676,-0.65 1.1179,-0.65 0.234,0 0.455,0.13 0.663,0.13 6.2915,3.77 10.7632,9.62 12.5961,16.77 1.8459,7.019 0.8189,14.43 -2.8728,20.669 -0.8709,1.431 -1.8849,2.86 -3.0028,4.16 -0.117,0.261 -0.299,0.391 -0.533,0.521 -3.1717,3.51 -7.1625,5.979 -11.6861,7.41 -0.156,0.13 -0.338,0.13 -0.52,0.26 -0.312,0 -0.611,0.13 -0.9229,0.259 -7.0585,1.821 -14.403,0.781 -20.6946,-2.86 -6.2915,-3.769 -10.7632,-9.619 -12.5961,-16.64 -1.8459,-7.149 -0.819,-14.429 2.8728,-20.799 0.364,-0.52 1.1569,-0.78 1.7809,-0.39 l 0,0 z"
         clip-rule="evenodd"
         id="path3164"
         inkscape:connector-curvature="0" />
    </clipPath>
  </defs>
  <sodipodi:namedview
     id="base"
     pagecolor="#ffffff"
     bordercolor="#666666"
     borderopacity="1.0"
     inkscape:pageopacity="0.0"
     inkscape:pageshadow="2"
     inkscape:zoom="0.35"
     inkscape:cx="283.22857"
     inkscape:cy="168.22862"
     inkscape:document-units="px"
     inkscape:current-layer="layer1"
     showgrid="false"
     fit-margin-top="0"
     fit-margin-left="0"
     fit-margin-right="0"
     fit-margin-bottom="0"
     inkscape:window-width="742"
     inkscape:window-height="443"
     inkscape:window-x="62"
     inkscape:window-y="24"
     inkscape:window-maximized="0" />
  <metadata
     id="metadata6680">
    <rdf:RDF>
      <cc:Work
         rdf:about="">
        <dc:format>image/svg+xml</dc:format>
        <dc:type
           rdf:resource="http://purl.org/dc/dcmitype/StillImage" />
        <dc:title></dc:title>
      </cc:Work>
    </rdf:RDF>
  </metadata>
  <g
     inkscape:label="Layer 1"
     inkscape:groupmode="layer"
     id="layer1"
     transform="translate(-586.05714,-466.9908)">
    <g
       id="g6628"
       transform="matrix(1.6,0,0,-1.6,-678.74286,4018.1908)">
      <g
         id="g3124">
        <g
           clip-path="url(#clipPath3128)"
           id="g3126">
          <g
             transform="matrix(1,0,0,-1,793,2217)"
             id="g3132">
            <path
               inkscape:connector-curvature="0"
               id="path3134"
               style="fill:none;stroke:#ffffff;stroke-width:5;stroke-linecap:butt;stroke-linejoin:miter;stroke-miterlimit:10;stroke-opacity:1;stroke-dasharray:none"
               d="M 70.5,141 C 109.4361,141 141,109.4361 141,70.5 141,31.56393 109.4361,0 70.5,0 31.56393,0 0,31.56393 0,70.5 0,109.4361 31.56393,141 70.5,141 z" />
          </g>
        </g>
      </g>
      <g
         id="g3136">
        <g
           clip-path="url(#clipPath3140)"
           id="g3138">
          <g
             clip-path="url(#clipPath3146)"
             id="g3144">
            <path
               inkscape:connector-curvature="0"
               id="path3150"
               style="fill:#ffffff;fill-opacity:1;fill-rule:evenodd;stroke:none"
               d="m 817.0417,2140.7 87.9971,0 0,-41.2 -87.9971,0 0,41.2 z" />
          </g>
        </g>
      </g>
      <g
         id="g3152">
        <g
           clip-path="url(#clipPath3156)"
           id="g3154">
          <g
             clip-path="url(#clipPath3162)"
             id="g3160">
            <path
               inkscape:connector-curvature="0"
               id="path3166"
               style="fill:#ffffff;fill-opacity:1;fill-rule:evenodd;stroke:none"
               d="m 835.2278,2187.467 64.6214,0 0,-61.057 -64.6214,0 0,61.057 z" />
          </g>
        </g>
      </g>
    </g>
  </g>
</svg>
