<?xml version="1.0" encoding="UTF-8" standalone="no"?>
<!-- Created with Inkscape (http://www.inkscape.org/) -->

<svg
   xmlns:dc="http://purl.org/dc/elements/1.1/"
   xmlns:cc="http://creativecommons.org/ns#"
   xmlns:rdf="http://www.w3.org/1999/02/22-rdf-syntax-ns#"
   xmlns:svg="http://www.w3.org/2000/svg"
   xmlns="http://www.w3.org/2000/svg"
   xmlns:sodipodi="http://sodipodi.sourceforge.net/DTD/sodipodi-0.dtd"
   xmlns:inkscape="http://www.inkscape.org/namespaces/inkscape"
   width="163.75"
   height="141.25"
   id="svg5872"
   version="1.1"
   inkscape:version="0.48.5 r10040"
   sodipodi:docname="empty_company.svg">
  <defs
     id="defs5874">
    <clipPath
       clipPathUnits="userSpaceOnUse"
       id="clipPath2752">
      <path
         inkscape:connector-curvature="0"
         d="m 0,2124 1000,0 L 1000,0 0,0 0,2124 z"
         clip-rule="evenodd"
         id="path2754" />
    </clipPath>
    <clipPath
       clipPathUnits="userSpaceOnUse"
       id="clipPath2758">
      <path
         inkscape:connector-curvature="0"
         d="M 596.9938,374 C 574.9059,374 557,356.0948 557,334.0014 l 0,-33.0028 C 557,278.908 574.9061,261 596.9938,261 l 51.0124,0 C 670.0941,261 688,278.9052 688,300.9986 l 0,33.0028 C 688,356.092 670.0939,374 648.0062,374 l -51.0124,0 z"
         clip-rule="evenodd"
         id="path2760" />
    </clipPath>
    <clipPath
       clipPathUnits="userSpaceOnUse"
       id="clipPath2752-7">
      <path
         inkscape:connector-curvature="0"
         d="m 0,2124 1000,0 L 1000,0 0,0 0,2124 z"
         clip-rule="evenodd"
         id="path2754-6" />
    </clipPath>
    <clipPath
       clipPathUnits="userSpaceOnUse"
       id="clipPath2758-0">
      <path
         inkscape:connector-curvature="0"
         d="M 596.9938,374 C 574.9059,374 557,356.0948 557,334.0014 l 0,-33.0028 C 557,278.908 574.9061,261 596.9938,261 l 51.0124,0 C 670.0941,261 688,278.9052 688,300.9986 l 0,33.0028 C 688,356.092 670.0939,374 648.0062,374 l -51.0124,0 z"
         clip-rule="evenodd"
         id="path2760-9" />
    </clipPath>
    <clipPath
       clipPathUnits="userSpaceOnUse"
       id="clipPath2800">
      <path
         inkscape:connector-curvature="0"
         d="m 0,2124 1000,0 L 1000,0 0,0 0,2124 z"
         clip-rule="evenodd"
         id="path2802" />
    </clipPath>
    <clipPath
       clipPathUnits="userSpaceOnUse"
       id="clipPath2806">
      <path
         inkscape:connector-curvature="0"
         d="m 509,307 228,0 0,93 -228,0 0,-93 z"
         id="path2808" />
    </clipPath>
    <clipPath
       clipPathUnits="userSpaceOnUse"
       id="clipPath2752-6">
      <path
         inkscape:connector-curvature="0"
         d="m 0,2124 1000,0 L 1000,0 0,0 0,2124 z"
         clip-rule="evenodd"
         id="path2754-8" />
    </clipPath>
    <clipPath
       clipPathUnits="userSpaceOnUse"
       id="clipPath2758-9">
      <path
         inkscape:connector-curvature="0"
         d="M 596.9938,374 C 574.9059,374 557,356.0948 557,334.0014 l 0,-33.0028 C 557,278.908 574.9061,261 596.9938,261 l 51.0124,0 C 670.0941,261 688,278.9052 688,300.9986 l 0,33.0028 C 688,356.092 670.0939,374 648.0062,374 l -51.0124,0 z"
         clip-rule="evenodd"
         id="path2760-6" />
    </clipPath>
    <clipPath
       clipPathUnits="userSpaceOnUse"
       id="clipPath2800-5">
      <path
         inkscape:connector-curvature="0"
         d="m 0,2124 1000,0 L 1000,0 0,0 0,2124 z"
         clip-rule="evenodd"
         id="path2802-1" />
    </clipPath>
    <clipPath
       clipPathUnits="userSpaceOnUse"
       id="clipPath2806-2">
      <path
         inkscape:connector-curvature="0"
         d="m 509,307 228,0 0,93 -228,0 0,-93 z"
         id="path2808-0" />
    </clipPath>
  </defs>
  <sodipodi:namedview
     id="base"
     pagecolor="#ffffff"
     bordercolor="#666666"
     borderopacity="1.0"
     inkscape:pageopacity="0.0"
     inkscape:pageshadow="2"
     inkscape:zoom="3.959798"
     inkscape:cx="30.881882"
     inkscape:cy="115.53903"
     inkscape:document-units="px"
     inkscape:current-layer="layer1"
     showgrid="false"
     fit-margin-top="0"
     fit-margin-left="0"
     fit-margin-right="0"
     fit-margin-bottom="0"
     inkscape:window-width="1592"
     inkscape:window-height="892"
     inkscape:window-x="0"
     inkscape:window-y="0"
     inkscape:window-maximized="0" />
  <metadata
     id="metadata5877">
    <rdf:RDF>
      <cc:Work
         rdf:about="">
        <dc:format>image/svg+xml</dc:format>
        <dc:type
           rdf:resource="http://purl.org/dc/dcmitype/StillImage" />
        <dc:title />
      </cc:Work>
    </rdf:RDF>
  </metadata>
  <g
     inkscape:label="Layer 1"
     inkscape:groupmode="layer"
     id="layer1"
     transform="translate(-301.96433,-566.6479)">
    <g
       id="g2748"
       transform="matrix(1.25,0,0,-1.25,-394.28567,1034.1479)">
      <g
         id="g2750"
         clip-path="url(#clipPath2752-6)">
        <g
           id="g2756"
           clip-path="url(#clipPath2758-9)">
          <g
             id="g2762"
             transform="matrix(1,0,0,-1,557,374)">
            <path
               d="M 39.99384,0 C 17.90585,0 0,17.90519 0,39.99859 L 0,73.00141 C 0,95.09202 17.90609,113 39.99384,113 l 51.01232,0 C 113.0941,113 131,95.09481 131,73.00141 l 0,-33.00282 C 131,17.90798 113.0939,0 91.00616,0 L 39.99384,0 z"
               style="fill:none;stroke:#dbd9d9;stroke-width:4;stroke-linecap:butt;stroke-linejoin:miter;stroke-miterlimit:10;stroke-opacity:1;stroke-dasharray:6, 6;stroke-dashoffset:0"
               id="path2764"
               inkscape:connector-curvature="0" />
          </g>
        </g>
      </g>
    </g>
  </g>
</svg>
