<?xml version="1.0" encoding="UTF-8" standalone="no"?>
<!-- Created with Inkscape (http://www.inkscape.org/) -->

<svg
   xmlns:dc="http://purl.org/dc/elements/1.1/"
   xmlns:cc="http://creativecommons.org/ns#"
   xmlns:rdf="http://www.w3.org/1999/02/22-rdf-syntax-ns#"
   xmlns:svg="http://www.w3.org/2000/svg"
   xmlns="http://www.w3.org/2000/svg"
   xmlns:sodipodi="http://sodipodi.sourceforge.net/DTD/sodipodi-0.dtd"
   xmlns:inkscape="http://www.inkscape.org/namespaces/inkscape"
   width="65"
   height="65"
   id="svg4756"
   version="1.1"
   inkscape:version="0.48.5 r10040"
   sodipodi:docname="New document 3">
  <defs
     id="defs4758">
    <clipPath
       clipPathUnits="userSpaceOnUse"
       id="clipPath1658">
      <path
         inkscape:connector-curvature="0"
         d="m 0,1031 1400,0 L 1400,0 0,0 0,1031 z"
         clip-rule="evenodd"
         id="path1660" />
    </clipPath>
    <clipPath
       clipPathUnits="userSpaceOnUse"
       id="clipPath1664">
      <path
         inkscape:connector-curvature="0"
         d="m 879,594 c 14.3594,0 26,11.6406 26,26 0,14.3594 -11.6406,26 -26,26 -14.3594,0 -26,-11.6406 -26,-26 0,-14.3594 11.6406,-26 26,-26 z"
         clip-rule="evenodd"
         id="path1666" />
    </clipPath>
    <clipPath
       clipPathUnits="userSpaceOnUse"
       id="clipPath1674">
      <path
         inkscape:connector-curvature="0"
         d="m 0,1031 1400,0 L 1400,0 0,0 0,1031 z"
         clip-rule="evenodd"
         id="path1676" />
    </clipPath>
    <clipPath
       clipPathUnits="userSpaceOnUse"
       id="clipPath1680">
      <path
         inkscape:connector-curvature="0"
         d="m 888,615.4322 c 0,1.426 -0.4181,2.5595 -1.2533,3.4027 -0.8362,0.8442 -1.9504,1.397 -3.3384,1.6714 l 0,0.1108 c 0.9645,0.3802 1.7238,0.9669 2.2702,1.7662 0.5507,0.7993 0.8255,1.7104 0.8255,2.7342 0,0.8871 -0.201,1.6664 -0.5999,2.3449 -0.3967,0.6736 -0.9998,1.2184 -1.805,1.6226 -0.7421,0.3762 -1.5409,0.6216 -2.3932,0.7364 -0.8512,0.1217 -2.1044,0.1786 -3.7554,0.1786 l -7.9505,0 0,-21 9.008,0 c 1.5634,0 2.8466,0.1297 3.8582,0.3952 1.0169,0.2654 1.9461,0.7034 2.7909,1.3231 0.7175,0.5209 1.2843,1.1695 1.7077,1.9588 0.4235,0.7913 0.6352,1.7104 0.6352,2.7551 0,0 0,-1.0447 0,0 l 0,0 0,0 z m -7,8.6859 c 0,0.3081 -0.0895,0.6198 -0.2716,0.9405 -0.1811,0.3207 -0.461,0.5542 -0.8481,0.698 -0.36,0.1383 -0.7877,0.212 -1.2851,0.2254 -0.4953,0.0126 -1.2352,0.018 -2.2133,0.018 l -0.3819,0 0,-4 0.693,0 c 0.9386,0 1.6004,0.008 1.9792,0.0252 0.3746,0.017 0.7659,0.105 1.1686,0.264 0.436,0.1779 0.743,0.4249 0.9074,0.7366 0.1665,0.3162 0.2518,0.6809 0.2518,1.0923 0,0 0,-0.4114 0,0 l 0,0 0,0 z m 2,-8.5716 c 0,0.6179 -0.1473,1.0981 -0.4498,1.4465 -0.3037,0.3531 -0.7559,0.6141 -1.3564,0.7915 -0.3642,0.1206 -0.87,0.1842 -1.5083,0.1975 -0.6393,0.0142 -1.4991,0.018 -2.5723,0.018 l -1.1132,0 0,-5 0.3243,0 c 1.5698,0 2.6556,0.009 3.2573,0.0275 0.5983,0.0181 1.216,0.1367 1.8382,0.3607 0.5515,0.1984 0.9477,0.4869 1.2011,0.8665 0.2535,0.3797 0.3791,0.8106 0.3791,1.2918 l 0,0 z"
         clip-rule="evenodd"
         id="path1682" />
    </clipPath>
  </defs>
  <sodipodi:namedview
     id="base"
     pagecolor="#ffffff"
     bordercolor="#666666"
     borderopacity="1.0"
     inkscape:pageopacity="0.0"
     inkscape:pageshadow="2"
     inkscape:zoom="0.35"
     inkscape:cx="773.2143"
     inkscape:cy="-873.21428"
     inkscape:document-units="px"
     inkscape:current-layer="layer1"
     showgrid="false"
     fit-margin-top="0"
     fit-margin-left="0"
     fit-margin-right="0"
     fit-margin-bottom="0"
     inkscape:window-width="1592"
     inkscape:window-height="892"
     inkscape:window-x="0"
     inkscape:window-y="0"
     inkscape:window-maximized="0" />
  <metadata
     id="metadata4761">
    <rdf:RDF>
      <cc:Work
         rdf:about="">
        <dc:format>image/svg+xml</dc:format>
        <dc:type
           rdf:resource="http://purl.org/dc/dcmitype/StillImage" />
        <dc:title></dc:title>
      </cc:Work>
    </rdf:RDF>
  </metadata>
  <g
     inkscape:label="Layer 1"
     inkscape:groupmode="layer"
     id="layer1"
     transform="translate(398.2143,405.8521)">
    <g
       transform="matrix(1.25,0,0,-1.25,-1464.4643,401.6479)"
       id="g4719">
      <g
         id="g1654">
        <g
           clip-path="url(#clipPath1658)"
           id="g1656">
          <g
             clip-path="url(#clipPath1664)"
             id="g1662">
            <path
               inkscape:connector-curvature="0"
               id="path1668"
               style="fill:#336089;fill-opacity:1;fill-rule:evenodd;stroke:none"
               d="m 848,651 62,0 0,-62 -62,0 0,62 z" />
          </g>
        </g>
      </g>
      <g
         id="g1670">
        <g
           clip-path="url(#clipPath1674)"
           id="g1672">
          <g
             clip-path="url(#clipPath1680)"
             id="g1678">
            <path
               inkscape:connector-curvature="0"
               id="path1684"
               style="fill:#ffffff;fill-opacity:1;fill-rule:evenodd;stroke:none"
               d="m 865,635 28,0 0,-31 -28,0 0,31 z" />
          </g>
        </g>
      </g>
    </g>
  </g>
</svg>
