<?xml version="1.0" encoding="UTF-8" standalone="no"?>
<!-- Created with Inkscape (http://www.inkscape.org/) -->

<svg
   xmlns:dc="http://purl.org/dc/elements/1.1/"
   xmlns:cc="http://creativecommons.org/ns#"
   xmlns:rdf="http://www.w3.org/1999/02/22-rdf-syntax-ns#"
   xmlns:svg="http://www.w3.org/2000/svg"
   xmlns="http://www.w3.org/2000/svg"
   xmlns:sodipodi="http://sodipodi.sourceforge.net/DTD/sodipodi-0.dtd"
   xmlns:inkscape="http://www.inkscape.org/namespaces/inkscape"
   width="65"
   height="65"
   id="svg4962"
   version="1.1"
   inkscape:version="0.48.5 r10040"
   sodipodi:docname="New document 9">
  <defs
     id="defs4964">
    <clipPath
       clipPathUnits="userSpaceOnUse"
       id="clipPath1690">
      <path
         inkscape:connector-curvature="0"
         d="m 0,1031 1400,0 L 1400,0 0,0 0,1031 z"
         clip-rule="evenodd"
         id="path1692" />
    </clipPath>
    <clipPath
       clipPathUnits="userSpaceOnUse"
       id="clipPath1696">
      <path
         inkscape:connector-curvature="0"
         d="m 879,435 c 14.3594,0 26,11.6406 26,26 0,14.3594 -11.6406,26 -26,26 -14.3594,0 -26,-11.6406 -26,-26 0,-14.3594 11.6406,-26 26,-26 z"
         clip-rule="evenodd"
         id="path1698" />
    </clipPath>
    <clipPath
       clipPathUnits="userSpaceOnUse"
       id="clipPath1706">
      <path
         inkscape:connector-curvature="0"
         d="m 0,1031 1400,0 L 1400,0 0,0 0,1031 z"
         clip-rule="evenodd"
         id="path1708" />
    </clipPath>
    <clipPath
       clipPathUnits="userSpaceOnUse"
       id="clipPath1712">
      <path
         inkscape:connector-curvature="0"
         d="m 887.1056,473 c -3.6178,0 -6.5507,-2.9149 -6.5507,-6.5102 0,-0.5103 0.0579,-1.007 0.1696,-1.4836 -5.4441,0.2715 -10.2708,2.8633 -13.5018,6.8022 -0.5638,-0.9615 -0.8868,-2.0799 -0.8868,-3.2731 0,-2.2585 1.1565,-4.2512 2.9141,-5.4188 -1.0737,0.0338 -2.0838,0.3266 -2.967,0.8144 -4e-4,-0.0273 -5e-4,-0.0545 -5e-4,-0.082 0,-3.1543 2.2579,-5.7857 5.2546,-6.3837 -0.5497,-0.1487 -1.1284,-0.2283 -1.7258,-0.2283 -0.4222,0 -0.8324,0.0409 -1.2324,0.1168 0.8335,-2.5864 3.2526,-4.4688 6.1191,-4.5213 -2.2419,-1.7461 -5.0664,-2.7869 -8.1354,-2.7869 -0.5287,0 -1.0501,0.0309 -1.5626,0.0909 2.8989,-1.8472 6.3422,-2.9249 10.0415,-2.9249 12.0489,0 18.6376,9.9203 18.6376,18.5235 0,0.2821 -0.006,0.5629 -0.0189,0.8421 1.2798,0.918 2.3903,2.0647 3.2686,3.3702 -1.1748,-0.5178 -2.4372,-0.8678 -3.7624,-1.0251 1.3525,0.8056 2.3913,2.0815 2.8803,3.6018 -1.2657,-0.7461 -2.6676,-1.2879 -4.1597,-1.58 -1.1949,1.2654 -2.8974,2.056 -4.7814,2.056"
         clip-rule="evenodd"
         id="path1714" />
    </clipPath>
  </defs>
  <sodipodi:namedview
     id="base"
     pagecolor="#ffffff"
     bordercolor="#666666"
     borderopacity="1.0"
     inkscape:pageopacity="0.0"
     inkscape:pageshadow="2"
     inkscape:zoom="0.35"
     inkscape:cx="1896.0714"
     inkscape:cy="-944.64285"
     inkscape:document-units="px"
     inkscape:current-layer="layer1"
     showgrid="false"
     fit-margin-top="0"
     fit-margin-left="0"
     fit-margin-right="0"
     fit-margin-bottom="0"
     inkscape:window-width="1592"
     inkscape:window-height="892"
     inkscape:window-x="0"
     inkscape:window-y="0"
     inkscape:window-maximized="0" />
  <metadata
     id="metadata4967">
    <rdf:RDF>
      <cc:Work
         rdf:about="">
        <dc:format>image/svg+xml</dc:format>
        <dc:type
           rdf:resource="http://purl.org/dc/dcmitype/StillImage" />
        <dc:title></dc:title>
      </cc:Work>
    </rdf:RDF>
  </metadata>
  <g
     inkscape:label="Layer 1"
     inkscape:groupmode="layer"
     id="layer1"
     transform="translate(1521.0714,477.28067)">
    <g
       transform="matrix(1.25,0,0,-1.25,-2587.3214,131.46933)"
       id="g4925">
      <g
         id="g1686">
        <g
           clip-path="url(#clipPath1690)"
           id="g1688">
          <g
             clip-path="url(#clipPath1696)"
             id="g1694">
            <path
               inkscape:connector-curvature="0"
               id="path1700"
               style="fill:#1ea7e2;fill-opacity:1;fill-rule:evenodd;stroke:none"
               d="m 848,492 62,0 0,-62 -62,0 0,62 z" />
          </g>
        </g>
      </g>
      <g
         id="g1702">
        <g
           clip-path="url(#clipPath1706)"
           id="g1704">
          <g
             clip-path="url(#clipPath1712)"
             id="g1710">
            <path
               inkscape:connector-curvature="0"
               id="path1716"
               style="fill:#ffffff;fill-opacity:1;fill-rule:evenodd;stroke:none"
               d="m 860,478 41.9288,0 0,-35.7885 -41.9288,0 0,35.7885 z" />
          </g>
        </g>
      </g>
    </g>
  </g>
</svg>
