<?xml version="1.0" encoding="UTF-8" standalone="no"?>
<!-- Created with Inkscape (http://www.inkscape.org/) -->

<svg
   xmlns:dc="http://purl.org/dc/elements/1.1/"
   xmlns:cc="http://creativecommons.org/ns#"
   xmlns:rdf="http://www.w3.org/1999/02/22-rdf-syntax-ns#"
   xmlns:svg="http://www.w3.org/2000/svg"
   xmlns="http://www.w3.org/2000/svg"
   xmlns:sodipodi="http://sodipodi.sourceforge.net/DTD/sodipodi-0.dtd"
   xmlns:inkscape="http://www.inkscape.org/namespaces/inkscape"
   width="233.60001"
   height="233.60001"
   id="svg5875"
   version="1.1"
   inkscape:version="0.48.5 r10040"
   sodipodi:docname="vol_01.svg">
  <defs
     id="defs5877">
    <clipPath
       clipPathUnits="userSpaceOnUse"
       id="clipPath814">
      <path
         inkscape:connector-curvature="0"
         d="m 0,3605 1300,0 L 1300,0 0,0 0,3605 z"
         clip-rule="evenodd"
         id="path816" />
    </clipPath>
    <clipPath
       clipPathUnits="userSpaceOnUse"
       id="clipPath826">
      <path
         inkscape:connector-curvature="0"
         d="m 0,3605 1300,0 L 1300,0 0,0 0,3605 z"
         clip-rule="evenodd"
         id="path828" />
    </clipPath>
    <clipPath
       clipPathUnits="userSpaceOnUse"
       id="clipPath832">
      <path
         inkscape:connector-curvature="0"
         d="m 223.8966,2172.689 -15.5616,0 c 0.4053,1.355 0.6293,2.785 0.6293,4.266 0,1.484 -0.224,2.912 -0.6293,4.268 l 15.5616,0 0,-8.534 0,0 z m -23.4651,-22.71 0,13.505 c 3.0932,1.483 5.5997,3.979 7.0716,7.071 l 13.5137,0 c -2.3999,-10.121 -10.4633,-18.176 -20.5853,-20.576 l 0,0 z m -2.1331,-2.89 -8.5328,0 0,15.562 c 1.3546,-0.404 2.7838,-0.628 4.2664,-0.628 1.4826,0 2.9118,0.224 4.2664,0.628 l 0,-15.562 0,0 z m -31.2512,23.466 13.5137,0 c 1.4719,-3.092 3.9784,-5.588 7.0715,-7.071 l 0,-13.505 c -10.1219,2.4 -18.1853,10.455 -20.5852,20.576 l 0,0 z m -2.8798,10.668 15.5616,0 c -0.4053,-1.356 -0.6293,-2.784 -0.6293,-4.268 0,-1.481 0.224,-2.911 0.6293,-4.266 l -15.5616,0 0,8.534 0,0 z m 23.465,22.719 0,-13.515 c -3.0931,-1.472 -5.5996,-3.978 -7.0715,-7.072 l -13.5137,0 c 2.3999,10.134 10.4633,18.187 20.5852,20.587 l 0,0 z m 2.1332,2.881 8.5328,0 0,-15.563 c -1.3546,0.406 -2.7838,0.629 -4.2664,0.629 -1.4826,0 -2.9118,-0.223 -4.2664,-0.629 l 0,15.563 0,0 z m 4.2664,-42.668 c -7.0608,0 -12.7991,5.751 -12.7991,12.8 0,7.063 5.7383,12.8 12.7991,12.8 7.0608,0 12.7991,-5.737 12.7991,-12.8 0,-7.049 -5.7383,-12.8 -12.7991,-12.8 l 0,0 z m 26.9848,19.2 -13.5137,0 c -1.4719,3.094 -3.9784,5.6 -7.0716,7.072 l 0,13.515 c 10.122,-2.4 18.1854,-10.453 20.5853,-20.587 l 0,0 z m 3.9464,0 -1.7812,0 c -2.4745,11.296 -11.4552,20.279 -22.7505,22.753 l 0,1.781 c 0,0.586 -0.4799,1.066 -1.0665,1.066 l -10.666,0 c -0.5866,0 -1.0666,-0.48 -1.0666,-1.066 l 0,-1.781 c -11.2952,-2.474 -20.2759,-11.457 -22.7504,-22.753 l -1.7812,0 c -0.5866,0 -1.0666,-0.48 -1.0666,-1.066 l 0,-10.666 c 0,-0.587 0.48,-1.068 1.0666,-1.068 l 1.7812,0 c 2.4745,-11.295 11.4552,-20.266 22.7504,-22.752 l 0,-1.78 c 0,-0.587 0.48,-1.068 1.0666,-1.068 l 10.666,0 c 0.5866,0 1.0665,0.481 1.0665,1.068 l 0,1.78 c 11.2953,2.486 20.276,11.457 22.7505,22.752 l 1.7812,0 c 0.5866,0 1.0666,0.481 1.0666,1.068 l 0,10.666 c 0,0.586 -0.48,1.066 -1.0666,1.066 l 0,0 z"
         clip-rule="evenodd"
         id="path834" />
    </clipPath>
  </defs>
  <sodipodi:namedview
     id="base"
     pagecolor="#ffffff"
     bordercolor="#666666"
     borderopacity="1.0"
     inkscape:pageopacity="0.0"
     inkscape:pageshadow="2"
     inkscape:zoom="0.35"
     inkscape:cx="-11.057139"
     inkscape:cy="502.51432"
     inkscape:document-units="px"
     inkscape:current-layer="layer1"
     showgrid="false"
     fit-margin-top="0"
     fit-margin-left="0"
     fit-margin-right="0"
     fit-margin-bottom="0"
     inkscape:window-width="1538"
     inkscape:window-height="876"
     inkscape:window-x="62"
     inkscape:window-y="24"
     inkscape:window-maximized="1" />
  <metadata
     id="metadata5880">
    <rdf:RDF>
      <cc:Work
         rdf:about="">
        <dc:format>image/svg+xml</dc:format>
        <dc:type
           rdf:resource="http://purl.org/dc/dcmitype/StillImage" />
        <dc:title />
      </cc:Work>
    </rdf:RDF>
  </metadata>
  <g
     inkscape:label="Layer 1"
     inkscape:groupmode="layer"
     id="layer1"
     transform="translate(102.51429,-801.2765)">
    <g
       id="g5865"
       transform="matrix(1.6,0,0,-1.6,-296.91429,4400.4765)">
      <g
         id="g810">
        <g
           clip-path="url(#clipPath814)"
           id="g812">
          <g
             transform="matrix(1,0,0,-1,124,2247)"
             id="g818">
            <path
               id="path820"
               style="fill:none;stroke:#ffffff;stroke-width:5;stroke-linecap:butt;stroke-linejoin:miter;stroke-miterlimit:10;stroke-opacity:1;stroke-dasharray:none"
               d="M 70.5,141 C 109.4361,141 141,109.4361 141,70.5 141,31.56393 109.4361,0 70.5,0 31.56393,0 0,31.56393 0,70.5 0,109.4361 31.56393,141 70.5,141 z"
               inkscape:connector-curvature="0" />
          </g>
        </g>
      </g>
      <g
         id="g822">
        <g
           clip-path="url(#clipPath826)"
           id="g824">
          <g
             clip-path="url(#clipPath832)"
             id="g830">
            <path
               id="path836"
               style="fill:#ffffff;fill-opacity:1;fill-rule:evenodd;stroke:none"
               d="m 157.0342,2213.955 73.9956,0 0,-74 -73.9956,0 0,74 z"
               inkscape:connector-curvature="0" />
          </g>
        </g>
      </g>
    </g>
  </g>
</svg>
