<?xml version="1.0" encoding="UTF-8" standalone="no"?>
<!-- Created with Inkscape (http://www.inkscape.org/) -->

<svg
   xmlns:dc="http://purl.org/dc/elements/1.1/"
   xmlns:cc="http://creativecommons.org/ns#"
   xmlns:rdf="http://www.w3.org/1999/02/22-rdf-syntax-ns#"
   xmlns:svg="http://www.w3.org/2000/svg"
   xmlns="http://www.w3.org/2000/svg"
   xmlns:sodipodi="http://sodipodi.sourceforge.net/DTD/sodipodi-0.dtd"
   xmlns:inkscape="http://www.inkscape.org/namespaces/inkscape"
   width="233.60001"
   height="233.60001"
   id="svg6045"
   version="1.1"
   inkscape:version="0.48.5 r10040"
   sodipodi:docname="vol_02.svg">
  <defs
     id="defs6047">
    <clipPath
       clipPathUnits="userSpaceOnUse"
       id="clipPath974">
      <path
         inkscape:connector-curvature="0"
         d="m 0,3605 1300,0 L 1300,0 0,0 0,3605 z"
         clip-rule="evenodd"
         id="path976" />
    </clipPath>
    <clipPath
       clipPathUnits="userSpaceOnUse"
       id="clipPath986">
      <path
         inkscape:connector-curvature="0"
         d="m 0,3605 1300,0 L 1300,0 0,0 0,3605 z"
         clip-rule="evenodd"
         id="path988" />
    </clipPath>
    <clipPath
       clipPathUnits="userSpaceOnUse"
       id="clipPath992">
      <path
         inkscape:connector-curvature="0"
         d="m 563.5259,2191.46 c 0.5499,0 0.9999,0.45 0.9999,1 0,0.56 -0.45,0.999 -0.9999,0.999 -0.56,0 -1,-0.439 -1,-0.999 0,-0.55 0.44,-1 1,-1"
         clip-rule="evenodd"
         id="path994" />
    </clipPath>
    <clipPath
       clipPathUnits="userSpaceOnUse"
       id="clipPath1002">
      <path
         inkscape:connector-curvature="0"
         d="m 0,3605 1300,0 L 1300,0 0,0 0,3605 z"
         clip-rule="evenodd"
         id="path1004" />
    </clipPath>
    <clipPath
       clipPathUnits="userSpaceOnUse"
       id="clipPath1008">
      <path
         inkscape:connector-curvature="0"
         d="m 563.5259,2189.46 c -0.55,0 -1,-0.44 -1,-1 l 0,-41 c 0,-0.55 0.45,-1 1,-1 0.5499,0 0.9999,0.45 0.9999,1 l 0,41 c 0,0.56 -0.45,1 -0.9999,1"
         clip-rule="evenodd"
         id="path1010" />
    </clipPath>
    <clipPath
       clipPathUnits="userSpaceOnUse"
       id="clipPath1018">
      <path
         inkscape:connector-curvature="0"
         d="m 0,3605 1300,0 L 1300,0 0,0 0,3605 z"
         clip-rule="evenodd"
         id="path1020" />
    </clipPath>
    <clipPath
       clipPathUnits="userSpaceOnUse"
       id="clipPath1024">
      <path
         inkscape:connector-curvature="0"
         d="m 539.8475,2148.69 c -4.2697,0 -8.3794,2.089 -10.4792,5.32 -0.19,0.28 -0.5,0.449 -0.84,0.449 -0.34,0 -0.6499,-0.169 -0.8399,-0.449 -2.0999,-3.231 -6.2096,-5.32 -10.4793,-5.32 -2.9898,0 -5.6396,1.01 -7.7095,2.88 0.46,-0.1 0.92,-0.14 1.39,-0.14 3.2197,0 6.6395,2.46 6.6395,7.03 0,3.8 3.2698,5.85 6.3495,5.85 1.5999,0 3.0198,-0.56 3.9098,-1.531 0.19,-0.199 0.4599,-0.319 0.7399,-0.319 0.28,0 0.54,0.12 0.73,0.319 0.8999,0.971 2.3198,1.531 3.9097,1.531 3.0898,0 6.3595,-2.05 6.3595,-5.85 0,-4.57 3.4198,-7.03 6.6396,-7.03 0.4699,0 0.9299,0.04 1.3899,0.14 -2.0699,-1.87 -4.7197,-2.88 -7.7095,-2.88 l 0,0 z m 12.1692,7.65 c -0.46,0.25 -1.03,0.11 -1.3199,-0.311 -1.12,-1.659 -2.7798,-2.599 -4.5297,-2.599 -2.3099,0 -4.6397,1.73 -4.6397,5.03 0,5.1 -4.3097,7.85 -8.3594,7.85 -1.7899,0 -3.4098,-0.52 -4.6397,-1.491 -1.2399,0.96 -2.8498,1.491 -4.6497,1.491 -4.0497,0 -8.3494,-2.75 -8.3494,-7.85 0,-3.3 -2.3298,-5.03 -4.6396,-5.03 -1.7599,0 -3.4098,0.94 -4.5297,2.599 -0.29,0.421 -0.87,0.561 -1.3199,0.311 -0.45,-0.26 -0.63,-0.81 -0.42,-1.28 2.3698,-5.32 6.9595,-8.371 12.5891,-8.371 4.4097,0 8.7094,1.96 11.3192,5.091 2.6098,-3.131 6.9095,-5.091 11.3192,-5.091 5.6296,0 10.2193,3.051 12.5891,8.371 0.21,0.47 0.03,1.02 -0.4199,1.28 l 0,0 z"
         clip-rule="evenodd"
         id="path1026" />
    </clipPath>
    <clipPath
       clipPathUnits="userSpaceOnUse"
       id="clipPath1034">
      <path
         inkscape:connector-curvature="0"
         d="m 0,3605 1300,0 L 1300,0 0,0 0,3605 z"
         clip-rule="evenodd"
         id="path1036" />
    </clipPath>
    <clipPath
       clipPathUnits="userSpaceOnUse"
       id="clipPath1040">
      <path
         inkscape:connector-curvature="0"
         d="m 545.5271,2180.46 c -6.6195,0 -11.9991,5.39 -11.9991,12 0,6.62 5.3796,12 11.9991,12 6.6196,0 11.9992,-5.38 11.9992,-12 0,-6.61 -5.3796,-12 -11.9992,-12 l 0,0 z m 0,26 c -7.7194,0 -13.999,-6.28 -13.999,-14 0,-7.72 6.2796,-14.001 13.999,-14.001 7.7195,0 13.999,6.281 13.999,14.001 0,7.72 -6.2795,14 -13.999,14 l 0,0 z"
         clip-rule="evenodd"
         id="path1042" />
    </clipPath>
    <clipPath
       clipPathUnits="userSpaceOnUse"
       id="clipPath1050">
      <path
         inkscape:connector-curvature="0"
         d="m 0,3605 1300,0 L 1300,0 0,0 0,3605 z"
         clip-rule="evenodd"
         id="path1052" />
    </clipPath>
    <clipPath
       clipPathUnits="userSpaceOnUse"
       id="clipPath1056">
      <path
         inkscape:connector-curvature="0"
         d="m 553.5266,2192.46 c 0,-4.41 -3.5898,-8.001 -7.9995,-8.001 -0.5499,0 -0.9999,-0.439 -0.9999,-0.999 0,-0.55 0.45,-1 0.9999,-1 5.5096,0 9.9993,4.49 9.9993,10 0,0.56 -0.4499,0.999 -0.9999,0.999 -0.55,0 -0.9999,-0.439 -0.9999,-0.999"
         clip-rule="evenodd"
         id="path1058" />
    </clipPath>
  </defs>
  <sodipodi:namedview
     id="base"
     pagecolor="#ffffff"
     bordercolor="#666666"
     borderopacity="1.0"
     inkscape:pageopacity="0.0"
     inkscape:pageshadow="2"
     inkscape:zoom="0.35"
     inkscape:cx="677.51427"
     inkscape:cy="-626.05718"
     inkscape:document-units="px"
     inkscape:current-layer="layer1"
     showgrid="false"
     fit-margin-top="0"
     fit-margin-left="0"
     fit-margin-right="0"
     fit-margin-bottom="0"
     inkscape:window-width="1538"
     inkscape:window-height="876"
     inkscape:window-x="62"
     inkscape:window-y="24"
     inkscape:window-maximized="1" />
  <metadata
     id="metadata6050">
    <rdf:RDF>
      <cc:Work
         rdf:about="">
        <dc:format>image/svg+xml</dc:format>
        <dc:type
           rdf:resource="http://purl.org/dc/dcmitype/StillImage" />
        <dc:title />
      </cc:Work>
    </rdf:RDF>
  </metadata>
  <g
     inkscape:label="Layer 1"
     inkscape:groupmode="layer"
     id="layer1"
     transform="translate(791.0857,327.295)">
    <g
       transform="matrix(1.6,0,0,-1.6,-1523.0857,3271.905)"
       id="g5962">
      <g
         id="g970">
        <g
           clip-path="url(#clipPath974)"
           id="g972">
          <g
             transform="matrix(1,0,0,-1,460,2247)"
             id="g978">
            <path
               inkscape:connector-curvature="0"
               id="path980"
               style="fill:none;stroke:#ffffff;stroke-width:5;stroke-linecap:butt;stroke-linejoin:miter;stroke-miterlimit:10;stroke-opacity:1;stroke-dasharray:none"
               d="M 70.5,141 C 109.4361,141 141,109.4361 141,70.5 141,31.56393 109.4361,0 70.5,0 31.56393,0 0,31.56393 0,70.5 0,109.4361 31.56393,141 70.5,141 z" />
          </g>
        </g>
      </g>
      <g
         id="g982">
        <g
           clip-path="url(#clipPath986)"
           id="g984">
          <g
             clip-path="url(#clipPath992)"
             id="g990">
            <path
               inkscape:connector-curvature="0"
               id="path996"
               style="fill:#ffffff;fill-opacity:1;fill-rule:evenodd;stroke:none"
               d="m 557.5259,2198.459 11.9999,0 0,-11.999 -11.9999,0 0,11.999 z" />
          </g>
        </g>
      </g>
      <g
         id="g998">
        <g
           clip-path="url(#clipPath1002)"
           id="g1000">
          <g
             clip-path="url(#clipPath1008)"
             id="g1006">
            <path
               inkscape:connector-curvature="0"
               id="path1012"
               style="fill:#ffffff;fill-opacity:1;fill-rule:evenodd;stroke:none"
               d="m 557.5259,2194.46 11.9999,0 0,-53 -11.9999,0 0,53 z" />
          </g>
        </g>
      </g>
      <g
         id="g1014">
        <g
           clip-path="url(#clipPath1018)"
           id="g1016">
          <g
             clip-path="url(#clipPath1024)"
             id="g1022">
            <path
               inkscape:connector-curvature="0"
               id="path1028"
               style="fill:#ffffff;fill-opacity:1;fill-rule:evenodd;stroke:none"
               d="m 499.5327,2171.31 57.9912,0 0,-29.621 -57.9912,0 0,29.621 z" />
          </g>
        </g>
      </g>
      <g
         id="g1030">
        <g
           clip-path="url(#clipPath1034)"
           id="g1032">
          <g
             clip-path="url(#clipPath1040)"
             id="g1038">
            <path
               inkscape:connector-curvature="0"
               id="path1044"
               style="fill:#ffffff;fill-opacity:1;fill-rule:evenodd;stroke:none"
               d="m 526.5281,2211.46 37.998,0 0,-38.001 -37.998,0 0,38.001 z" />
          </g>
        </g>
      </g>
      <g
         id="g1046">
        <g
           clip-path="url(#clipPath1050)"
           id="g1048">
          <g
             clip-path="url(#clipPath1056)"
             id="g1054">
            <path
               inkscape:connector-curvature="0"
               id="path1060"
               style="fill:#ffffff;fill-opacity:1;fill-rule:evenodd;stroke:none"
               d="m 539.5272,2198.459 20.9992,0 0,-20.999 -20.9992,0 0,20.999 z" />
          </g>
        </g>
      </g>
    </g>
  </g>
</svg>
