<?xml version="1.0" encoding="UTF-8" standalone="no"?>
<!-- Created with Inkscape (http://www.inkscape.org/) -->

<svg
   xmlns:dc="http://purl.org/dc/elements/1.1/"
   xmlns:cc="http://creativecommons.org/ns#"
   xmlns:rdf="http://www.w3.org/1999/02/22-rdf-syntax-ns#"
   xmlns:svg="http://www.w3.org/2000/svg"
   xmlns="http://www.w3.org/2000/svg"
   xmlns:sodipodi="http://sodipodi.sourceforge.net/DTD/sodipodi-0.dtd"
   xmlns:inkscape="http://www.inkscape.org/namespaces/inkscape"
   width="72.499886"
   height="60"
   id="svg5794"
   version="1.1"
   inkscape:version="0.48.5 r10040"
   sodipodi:docname="New document 5">
  <defs
     id="defs5796">
    <clipPath
       clipPathUnits="userSpaceOnUse"
       id="clipPath1022">
      <path
         inkscape:connector-curvature="0"
         d="m 433.118,1311.786 -10.002,7.86 c -2.726,2.14 -6.13,3.326 -9.594,3.349 -0.007,0 -0.014,0.01 -0.022,0.01 l -17.916,0 c -3.501,0 -6.946,-1.191 -9.7,-3.354 l -10.002,-7.86 c -0.225,-0.177 -0.363,-0.441 -0.38,-0.726 -0.018,-0.286 0.089,-0.565 0.291,-0.767 l 8,-8 c 0.391,-0.391 1.023,-0.391 1.414,0 l 4.293,4.293 0,-30.586 c 0,-0.553 0.447,-1 1,-1 l 28,0 c 0.553,0 1,0.447 1,1 l 0,30.586 4.293,-4.293 c 0.391,-0.391 1.023,-0.391 1.414,0 l 8,8 c 0.202,0.202 0.309,0.481 0.291,0.767 -0.017,0.285 -0.155,0.549 -0.38,0.726 l 0,0 z M 405.5,1315 c -3.52,0 -6.442,2.612 -6.929,6 l 13.858,0 c -0.487,-3.388 -3.408,-6 -6.929,-6 l 0,0 z"
         clip-rule="evenodd"
         id="path1024" />
    </clipPath>
    <clipPath
       clipPathUnits="userSpaceOnUse"
       id="clipPath1026">
      <path
         inkscape:connector-curvature="0"
         d="m 294,1062 227,0 0,324 -227,0 0,-324 z"
         id="path1028" />
    </clipPath>
  </defs>
  <sodipodi:namedview
     id="base"
     pagecolor="#ffffff"
     bordercolor="#666666"
     borderopacity="1.0"
     inkscape:pageopacity="0.0"
     inkscape:pageshadow="2"
     inkscape:zoom="0.35"
     inkscape:cx="214.10708"
     inkscape:cy="249.99997"
     inkscape:document-units="px"
     inkscape:current-layer="layer1"
     showgrid="false"
     fit-margin-top="0"
     fit-margin-left="0"
     fit-margin-right="0"
     fit-margin-bottom="0"
     inkscape:window-width="1538"
     inkscape:window-height="876"
     inkscape:window-x="62"
     inkscape:window-y="24"
     inkscape:window-maximized="1" />
  <metadata
     id="metadata5799">
    <rdf:RDF>
      <cc:Work
         rdf:about="">
        <dc:format>image/svg+xml</dc:format>
        <dc:type
           rdf:resource="http://purl.org/dc/dcmitype/StillImage" />
        <dc:title></dc:title>
      </cc:Work>
    </rdf:RDF>
  </metadata>
  <g
     inkscape:label="Layer 1"
     inkscape:groupmode="layer"
     id="layer1"
     transform="translate(-160.89292,-722.36215)">
    <g
       clip-path="url(#clipPath1022)"
       id="g1082"
       transform="matrix(1.25,0,0,-1.25,-308.48214,2376.1184)">
      <g
         clip-path="url(#clipPath1026)"
         id="g1084">
        <path
           d="m 370.5,1328 67.9999,0 0,-58 -67.9999,0 0,58 z"
           style="fill:#ffffff;fill-opacity:1;fill-rule:evenodd;stroke:none"
           id="path1086"
           inkscape:connector-curvature="0" />
      </g>
    </g>
  </g>
</svg>
