<?xml version="1.0" encoding="UTF-8" standalone="no"?>
<!-- Created with Inkscape (http://www.inkscape.org/) -->

<svg
   xmlns:dc="http://purl.org/dc/elements/1.1/"
   xmlns:cc="http://creativecommons.org/ns#"
   xmlns:rdf="http://www.w3.org/1999/02/22-rdf-syntax-ns#"
   xmlns:svg="http://www.w3.org/2000/svg"
   xmlns="http://www.w3.org/2000/svg"
   xmlns:sodipodi="http://sodipodi.sourceforge.net/DTD/sodipodi-0.dtd"
   xmlns:inkscape="http://www.inkscape.org/namespaces/inkscape"
   width="72.5"
   height="70.006248"
   id="svg6145"
   version="1.1"
   inkscape:version="0.48.5 r10040"
   sodipodi:docname="New document 8">
  <defs
     id="defs6147">
    <clipPath
       clipPathUnits="userSpaceOnUse"
       id="clipPath1198">
      <path
         inkscape:connector-curvature="0"
         d="m 678.5,1315 -3,-0.01 0,-36.995 c 0,-0.552 -0.447,-1 -1,-1 l -16,0 c -2.313,0 -5,-2.621 -5,-6 0,-0.552 -0.447,-1 -1,-1 l -4,0 c -0.553,0 -1,0.448 -1,1 0,3.364 -2.636,6 -6,6 l -15,0 c -0.553,0 -1,0.448 -1,1 l 0,36.913 -3,0 c -0.553,0 -1,-0.448 -1,-1 l 0,-39.913 c 0,-0.552 0.447,-1 1,-1 l 15,0 c 3.983,0 8,-2.165 8,-7 0,-0.552 0.447,-1 1,-1 l 8,0 c 0.553,0 1,0.448 1,1 0,4.835 4.018,7 8,7 l 15,0 c 0.553,0 1,0.448 1,1 l 0,40 c 0,0.552 -0.447,1 -1,1"
         clip-rule="evenodd"
         id="path1200" />
    </clipPath>
    <clipPath
       clipPathUnits="userSpaceOnUse"
       id="clipPath1202">
      <path
         inkscape:connector-curvature="0"
         d="m 539,1062 227,0 0,324 -227,0 0,-324 z"
         id="path1204" />
    </clipPath>
    <clipPath
       clipPathUnits="userSpaceOnUse"
       id="clipPath1206">
      <path
         inkscape:connector-curvature="0"
         d="m 658.5,1279 15,0 0,41 c 0,0.552 -0.447,1 -1,1 l -14,0 c -0.369,0 -0.74,-0.028 -1.109,-0.075 -0.15,-0.019 -0.295,-0.053 -0.444,-0.079 -0.212,-0.038 -0.426,-0.076 -0.638,-0.128 -0.184,-0.047 -0.364,-0.105 -0.543,-0.162 -0.17,-0.054 -0.338,-0.109 -0.504,-0.172 -0.192,-0.073 -0.379,-0.153 -0.565,-0.238 -0.154,-0.071 -0.306,-0.147 -0.457,-0.226 -0.176,-0.093 -0.353,-0.188 -0.523,-0.292 -0.173,-0.106 -0.339,-0.221 -0.504,-0.338 -0.135,-0.094 -0.272,-0.184 -0.398,-0.285 -0.483,-0.381 -0.917,-0.825 -1.315,-1.307 l 0,-45.698 0.06,0 c 0.487,4.068 3.881,7 6.94,7"
         clip-rule="evenodd"
         id="path1208" />
    </clipPath>
    <clipPath
       clipPathUnits="userSpaceOnUse"
       id="clipPath1210">
      <path
         inkscape:connector-curvature="0"
         d="m 539,1062 227,0 0,324 -227,0 0,-324 z"
         id="path1212" />
    </clipPath>
    <clipPath
       clipPathUnits="userSpaceOnUse"
       id="clipPath1214">
      <path
         inkscape:connector-curvature="0"
         d="m 641.5,1279 c 4.146,0 7.463,-3.002 7.941,-7 l 0.059,0 0,45.698 c -0.398,0.482 -0.832,0.926 -1.313,1.307 -0.129,0.101 -0.265,0.191 -0.399,0.284 -0.166,0.118 -0.332,0.233 -0.505,0.339 -0.17,0.104 -0.345,0.199 -0.523,0.292 -0.15,0.079 -0.303,0.155 -0.457,0.226 -0.186,0.085 -0.373,0.165 -0.564,0.238 -0.167,0.063 -0.335,0.118 -0.505,0.172 -0.179,0.057 -0.36,0.115 -0.544,0.162 -0.21,0.052 -0.424,0.09 -0.637,0.129 -0.149,0.026 -0.295,0.059 -0.443,0.078 -0.37,0.047 -0.741,0.075 -1.11,0.075 l -14,0 c -0.553,0 -1,-0.448 -1,-1 l 0,-41 14,0"
         clip-rule="evenodd"
         id="path1216" />
    </clipPath>
    <clipPath
       clipPathUnits="userSpaceOnUse"
       id="clipPath1218">
      <path
         inkscape:connector-curvature="0"
         d="m 539,1062 227,0 0,324 -227,0 0,-324 z"
         id="path1220" />
    </clipPath>
  </defs>
  <sodipodi:namedview
     id="base"
     pagecolor="#ffffff"
     bordercolor="#666666"
     borderopacity="1.0"
     inkscape:pageopacity="0.0"
     inkscape:pageshadow="2"
     inkscape:zoom="0.35"
     inkscape:cx="102.67857"
     inkscape:cy="-267.85403"
     inkscape:document-units="px"
     inkscape:current-layer="layer1"
     showgrid="false"
     fit-margin-top="0"
     fit-margin-left="0"
     fit-margin-right="0"
     fit-margin-bottom="0"
     inkscape:window-width="1538"
     inkscape:window-height="876"
     inkscape:window-x="62"
     inkscape:window-y="24"
     inkscape:window-maximized="1" />
  <metadata
     id="metadata6150">
    <rdf:RDF>
      <cc:Work
         rdf:about="">
        <dc:format>image/svg+xml</dc:format>
        <dc:type
           rdf:resource="http://purl.org/dc/dcmitype/StillImage" />
        <dc:title></dc:title>
      </cc:Work>
    </rdf:RDF>
  </metadata>
  <g
     inkscape:label="Layer 1"
     inkscape:groupmode="layer"
     id="layer1"
     transform="translate(-272.32143,-194.5019)">
    <g
       transform="matrix(1.25,0,0,-1.25,-504.55357,1845.7519)"
       id="g6094">
      <g
         id="g1272">
        <g
           clip-path="url(#clipPath1198)"
           id="g1274">
          <g
             clip-path="url(#clipPath1202)"
             id="g1276">
            <path
               d="m 616.5,1320 68,0 0,-60 -68,0 0,60 z"
               style="fill:#ffffff;fill-opacity:1;fill-rule:evenodd;stroke:none"
               id="path1278"
               inkscape:connector-curvature="0" />
          </g>
        </g>
      </g>
      <g
         id="g6088">
        <g
           id="g1280">
          <g
             id="g1282"
             clip-path="url(#clipPath1206)">
            <g
               id="g1284"
               clip-path="url(#clipPath1210)">
              <path
                 inkscape:connector-curvature="0"
                 id="path1286"
                 style="fill:#ffffff;fill-opacity:1;fill-rule:evenodd;stroke:none"
                 d="m 646.5,1326 32,0 0,-59 -32,0 0,59 z" />
            </g>
          </g>
        </g>
      </g>
      <g
         id="g1288">
        <g
           clip-path="url(#clipPath1214)"
           id="g1290">
          <g
             clip-path="url(#clipPath1218)"
             id="g1292">
            <path
               d="m 622.5,1326 32,0 0,-59 -32,0 0,59 z"
               style="fill:#ffffff;fill-opacity:1;fill-rule:evenodd;stroke:none"
               id="path1294"
               inkscape:connector-curvature="0" />
          </g>
        </g>
      </g>
    </g>
  </g>
</svg>
