<?xml version="1.0" encoding="UTF-8" standalone="no"?>
<!-- Created with Inkscape (http://www.inkscape.org/) -->

<svg
   xmlns:dc="http://purl.org/dc/elements/1.1/"
   xmlns:cc="http://creativecommons.org/ns#"
   xmlns:rdf="http://www.w3.org/1999/02/22-rdf-syntax-ns#"
   xmlns:svg="http://www.w3.org/2000/svg"
   xmlns="http://www.w3.org/2000/svg"
   xmlns:sodipodi="http://sodipodi.sourceforge.net/DTD/sodipodi-0.dtd"
   xmlns:inkscape="http://www.inkscape.org/namespaces/inkscape"
   width="233.60001"
   height="233.60001"
   id="svg6462"
   version="1.1"
   inkscape:version="0.48.5 r10040"
   sodipodi:docname="New document 6">
  <defs
     id="defs6464">
    <clipPath
       clipPathUnits="userSpaceOnUse"
       id="clipPath3012">
      <path
         d="m 0,3023 1300,0 L 1300,0 0,0 0,3023 z"
         clip-rule="evenodd"
         id="path3014"
         inkscape:connector-curvature="0" />
    </clipPath>
    <clipPath
       clipPathUnits="userSpaceOnUse"
       id="clipPath3024">
      <path
         d="m 0,3023 1300,0 L 1300,0 0,0 0,3023 z"
         clip-rule="evenodd"
         id="path3026"
         inkscape:connector-curvature="0" />
    </clipPath>
    <clipPath
       clipPathUnits="userSpaceOnUse"
       id="clipPath3030">
      <path
         d="m 541.3862,2121.899 c -5.0859,0 -9.2285,4.143 -9.2285,9.229 0,5.097 4.1426,9.229 9.2285,9.229 5.0859,0 9.2285,-4.132 9.2285,-9.229 0,-5.086 -4.1426,-9.229 -9.2285,-9.229 l 0,0 z m -28.7109,0 c -5.0859,0 -9.2285,4.143 -9.2285,9.229 0,5.097 4.1426,9.229 9.2285,9.229 5.0859,0 9.2285,-4.132 9.2285,-9.229 0,-5.086 -4.1426,-9.229 -9.2285,-9.229 l 0,0 z m 34.8633,47.17 c -0.564,0 -1.0254,-0.45 -1.0254,-1.024 0,-0.564 0.4614,-1.026 1.0254,-1.026 1.6918,0 3.0761,-1.374 3.0761,-3.076 l 0,-26.344 c -2.0405,2.902 -5.414,4.809 -9.2285,4.809 -4.9731,0 -9.1875,-3.23 -10.6948,-7.701 -0.9228,0.952 -2.2251,1.548 -3.6606,1.548 -1.4356,0 -2.7378,-0.596 -3.6709,-1.548 -1.4971,4.471 -5.7115,7.701 -10.6846,7.701 -3.8144,0 -7.188,-1.907 -9.2285,-4.809 l 0,26.344 c 0,1.702 1.3843,3.076 3.0762,3.076 0.5639,0 1.0254,0.462 1.0254,1.026 0,0.574 -0.4615,1.024 -1.0254,1.024 -2.8301,0 -5.127,-2.296 -5.127,-5.126 l 0,-32.815 c 0,-6.214 5.0552,-11.281 11.2793,-11.281 6.2139,0 11.2793,5.067 11.2793,11.281 0,1.702 1.3843,3.076 3.0762,3.076 1.6919,0 3.0761,-1.374 3.0761,-3.076 0,-6.214 5.0552,-11.281 11.2793,-11.281 6.2139,0 11.2793,5.067 11.2793,11.281 l 0,32.815 c 0,2.83 -2.2969,5.126 -5.1269,5.126 l 0,0 z"
         clip-rule="evenodd"
         id="path3032"
         inkscape:connector-curvature="0" />
    </clipPath>
    <clipPath
       clipPathUnits="userSpaceOnUse"
       id="clipPath3012-4">
      <path
         d="m 0,3023 1300,0 L 1300,0 0,0 0,3023 z"
         clip-rule="evenodd"
         id="path3014-5"
         inkscape:connector-curvature="0" />
    </clipPath>
    <clipPath
       clipPathUnits="userSpaceOnUse"
       id="clipPath3024-0">
      <path
         d="m 0,3023 1300,0 L 1300,0 0,0 0,3023 z"
         clip-rule="evenodd"
         id="path3026-1"
         inkscape:connector-curvature="0" />
    </clipPath>
    <clipPath
       clipPathUnits="userSpaceOnUse"
       id="clipPath3030-5">
      <path
         d="m 541.3862,2121.899 c -5.0859,0 -9.2285,4.143 -9.2285,9.229 0,5.097 4.1426,9.229 9.2285,9.229 5.0859,0 9.2285,-4.132 9.2285,-9.229 0,-5.086 -4.1426,-9.229 -9.2285,-9.229 l 0,0 z m -28.7109,0 c -5.0859,0 -9.2285,4.143 -9.2285,9.229 0,5.097 4.1426,9.229 9.2285,9.229 5.0859,0 9.2285,-4.132 9.2285,-9.229 0,-5.086 -4.1426,-9.229 -9.2285,-9.229 l 0,0 z m 34.8633,47.17 c -0.564,0 -1.0254,-0.45 -1.0254,-1.024 0,-0.564 0.4614,-1.026 1.0254,-1.026 1.6918,0 3.0761,-1.374 3.0761,-3.076 l 0,-26.344 c -2.0405,2.902 -5.414,4.809 -9.2285,4.809 -4.9731,0 -9.1875,-3.23 -10.6948,-7.701 -0.9228,0.952 -2.2251,1.548 -3.6606,1.548 -1.4356,0 -2.7378,-0.596 -3.6709,-1.548 -1.4971,4.471 -5.7115,7.701 -10.6846,7.701 -3.8144,0 -7.188,-1.907 -9.2285,-4.809 l 0,26.344 c 0,1.702 1.3843,3.076 3.0762,3.076 0.5639,0 1.0254,0.462 1.0254,1.026 0,0.574 -0.4615,1.024 -1.0254,1.024 -2.8301,0 -5.127,-2.296 -5.127,-5.126 l 0,-32.815 c 0,-6.214 5.0552,-11.281 11.2793,-11.281 6.2139,0 11.2793,5.067 11.2793,11.281 0,1.702 1.3843,3.076 3.0762,3.076 1.6919,0 3.0761,-1.374 3.0761,-3.076 0,-6.214 5.0552,-11.281 11.2793,-11.281 6.2139,0 11.2793,5.067 11.2793,11.281 l 0,32.815 c 0,2.83 -2.2969,5.126 -5.1269,5.126 l 0,0 z"
         clip-rule="evenodd"
         id="path3032-6"
         inkscape:connector-curvature="0" />
    </clipPath>
  </defs>
  <sodipodi:namedview
     id="base"
     pagecolor="#ffffff"
     bordercolor="#666666"
     borderopacity="1.0"
     inkscape:pageopacity="0.0"
     inkscape:pageshadow="2"
     inkscape:zoom="0.35"
     inkscape:cx="311.8"
     inkscape:cy="376.80002"
     inkscape:document-units="px"
     inkscape:current-layer="layer1"
     showgrid="false"
     fit-margin-top="0"
     fit-margin-left="0"
     fit-margin-right="0"
     fit-margin-bottom="0"
     inkscape:window-width="742"
     inkscape:window-height="443"
     inkscape:window-x="62"
     inkscape:window-y="24"
     inkscape:window-maximized="0" />
  <metadata
     id="metadata6467">
    <rdf:RDF>
      <cc:Work
         rdf:about="">
        <dc:format>image/svg+xml</dc:format>
        <dc:type
           rdf:resource="http://purl.org/dc/dcmitype/StillImage" />
        <dc:title></dc:title>
      </cc:Work>
    </rdf:RDF>
  </metadata>
  <g
     inkscape:label="Layer 1"
     inkscape:groupmode="layer"
     id="layer1"
     transform="translate(-557.48571,-675.5622)">
    <g
       transform="matrix(1.6,0,0,-1.6,-168.11429,4226.7622)"
       id="g6503">
      <g
         id="g3008">
        <g
           clip-path="url(#clipPath3012-4)"
           id="g3010">
          <g
             transform="matrix(1,0,0,-1,456,2217)"
             id="g3016">
            <path
               inkscape:connector-curvature="0"
               id="path3018"
               style="fill:none;stroke:#ffffff;stroke-width:5;stroke-linecap:butt;stroke-linejoin:miter;stroke-miterlimit:10;stroke-opacity:1;stroke-dasharray:none"
               d="M 70.5,141 C 109.4361,141 141,109.4361 141,70.5 141,31.56393 109.4361,0 70.5,0 31.56393,0 0,31.56393 0,70.5 0,109.4361 31.56393,141 70.5,141 z" />
          </g>
        </g>
      </g>
      <g
         id="g3020">
        <g
           clip-path="url(#clipPath3024-0)"
           id="g3022">
          <g
             clip-path="url(#clipPath3030-5)"
             id="g3028">
            <path
               inkscape:connector-curvature="0"
               id="path3034"
               style="fill:#ffffff;fill-opacity:1;fill-rule:evenodd;stroke:none"
               d="m 496.396,2174.069 61.2695,0 0,-59.222 -61.2695,0 0,59.222 z" />
          </g>
        </g>
      </g>
    </g>
  </g>
</svg>
