<?xml version="1.0" encoding="UTF-8" standalone="no"?>
<!-- Created with Inkscape (http://www.inkscape.org/) -->

<svg
   xmlns:dc="http://purl.org/dc/elements/1.1/"
   xmlns:cc="http://creativecommons.org/ns#"
   xmlns:rdf="http://www.w3.org/1999/02/22-rdf-syntax-ns#"
   xmlns:svg="http://www.w3.org/2000/svg"
   xmlns="http://www.w3.org/2000/svg"
   xmlns:sodipodi="http://sodipodi.sourceforge.net/DTD/sodipodi-0.dtd"
   xmlns:inkscape="http://www.inkscape.org/namespaces/inkscape"
   width="233.60001"
   height="233.60001"
   id="svg6344"
   version="1.1"
   inkscape:version="0.48.5 r10040"
   sodipodi:docname="New document 3">
  <defs
     id="defs6346">
    <clipPath
       clipPathUnits="userSpaceOnUse"
       id="clipPath2862">
      <path
         inkscape:connector-curvature="0"
         d="m 0,3023 1300,0 L 1300,0 0,0 0,3023 z"
         clip-rule="evenodd"
         id="path2864" />
    </clipPath>
    <clipPath
       clipPathUnits="userSpaceOnUse"
       id="clipPath2874">
      <path
         inkscape:connector-curvature="0"
         d="m 0,3023 1300,0 L 1300,0 0,0 0,3023 z"
         clip-rule="evenodd"
         id="path2876" />
    </clipPath>
    <clipPath
       clipPathUnits="userSpaceOnUse"
       id="clipPath2880">
      <path
         inkscape:connector-curvature="0"
         d="m 215.0016,2113.214 c 0,-0.74 -0.5548,-1.233 -1.2328,-1.233 l -2.4654,0 c -0.678,0 -1.2328,0.493 -1.2328,1.233 l 0,2.466 c 0,1.972 -1.6641,3.698 -3.6981,3.698 l -2.4655,0 c -2.034,0 -3.6982,-1.726 -3.6982,-3.698 l 0,-2.466 c 0,-0.74 -0.5547,-1.233 -1.2327,-1.233 l -2.4655,0 c -0.678,0 -1.2327,0.493 -1.2327,1.233 l 0,2.466 c 0,1.972 -1.6642,3.698 -3.6982,3.698 l -2.4655,0 c -2.034,0 -3.6982,-1.726 -3.6982,-3.698 l 0,-2.466 c 0,-0.74 -0.5547,-1.233 -1.2327,-1.233 l -2.4655,0 c -0.678,0 -1.2327,0.493 -1.2327,1.233 l 0,2.466 c 0,1.972 -1.6642,3.698 -3.6982,3.698 l -2.4654,0 c -2.0341,0 -3.6982,-1.726 -3.6982,-3.698 l 0,-2.466 c 0,-0.74 -0.5548,-1.233 -1.2328,-1.233 l -2.4654,0 c -0.678,0 -1.2328,0.493 -1.2328,1.233 l 0,43.149 c 0,13.807 10.8234,24.656 24.6547,24.656 13.8189,0 24.6546,-10.849 24.6546,-24.656 l 0,-43.149 0,0 z m -24.6546,70.271 c -15.2119,0 -27.1201,-11.96 -27.1201,-27.122 l 0,-43.149 c 0,-2.096 1.6642,-3.699 3.6982,-3.699 l 2.4654,0 c 2.034,0 3.6982,1.603 3.6982,3.699 l 0,2.466 c 0,0.616 0.5548,1.232 1.2328,1.232 l 2.4654,0 c 0.678,0 1.2327,-0.616 1.2327,-1.232 l 0,-2.466 c 0,-2.096 1.6642,-3.699 3.6982,-3.699 l 2.4655,0 c 2.034,0 3.6982,1.603 3.6982,3.699 l 0,2.466 c 0,0.616 0.5547,1.232 1.2327,1.232 l 2.4655,0 c 0.678,0 1.2327,-0.616 1.2327,-1.232 l 0,-2.466 c 0,-2.096 1.6642,-3.699 3.6982,-3.699 l 2.4655,0 c 2.034,0 3.6982,1.603 3.6982,3.699 l 0,2.466 c 0,0.616 0.5547,1.232 1.2327,1.232 l 2.4655,0 c 0.678,0 1.2327,-0.616 1.2327,-1.232 l 0,-2.466 c 0,-2.096 1.6642,-3.699 3.6982,-3.699 l 2.4654,0 c 2.034,0 3.6982,1.603 3.6982,3.699 l 0,43.149 c 0,15.162 -11.9082,27.122 -27.12,27.122 l 0,0 z"
         clip-rule="evenodd"
         id="path2882" />
    </clipPath>
    <clipPath
       clipPathUnits="userSpaceOnUse"
       id="clipPath2890">
      <path
         inkscape:connector-curvature="0"
         d="m 0,3023 1300,0 L 1300,0 0,0 0,3023 z"
         clip-rule="evenodd"
         id="path2892" />
    </clipPath>
    <clipPath
       clipPathUnits="userSpaceOnUse"
       id="clipPath2896">
      <path
         inkscape:connector-curvature="0"
         d="m 202.6743,2148.966 c 0,-2.713 -1.6889,-4.932 -3.6982,-4.932 -1.356,0 -2.5518,0.987 -3.2051,2.466 l 0.7396,0 c 2.034,0 3.6982,1.603 3.6982,3.698 0,1.972 -1.6642,3.699 -3.6982,3.699 -0.4314,0 -0.8506,-0.123 -1.2327,-0.247 l 0,2.713 c 0,2.587 1.6888,4.931 3.6982,4.931 2.0093,0 3.6982,-2.344 3.6982,-4.931 l 0,-7.397 0,0 z m -7.3964,1.232 c 0,0.617 0.5547,1.233 1.2327,1.233 0.678,0 1.2327,-0.616 1.2327,-1.233 0,-0.739 -0.5547,-1.232 -1.2327,-1.232 -0.678,0 -1.2327,0.493 -1.2327,1.232 l 0,0 z m 3.6982,13.561 c -3.4024,0 -6.1637,-3.329 -6.1637,-7.396 l 0,-7.397 c 0,-4.069 2.7613,-7.397 6.1637,-7.397 3.4023,0 6.1636,3.328 6.1636,7.397 l 0,7.397 c 0,4.067 -2.7613,7.396 -6.1636,7.396 l 0,0 z"
         clip-rule="evenodd"
         id="path2898" />
    </clipPath>
    <clipPath
       clipPathUnits="userSpaceOnUse"
       id="clipPath2906">
      <path
         inkscape:connector-curvature="0"
         d="m 0,3023 1300,0 L 1300,0 0,0 0,3023 z"
         clip-rule="evenodd"
         id="path2908" />
    </clipPath>
    <clipPath
       clipPathUnits="userSpaceOnUse"
       id="clipPath2912">
      <path
         inkscape:connector-curvature="0"
         d="m 185.416,2148.966 c 0,-2.713 -1.6888,-4.932 -3.6982,-4.932 -1.356,0 -2.5517,0.987 -3.2051,2.466 l 0.7397,0 c 2.034,0 3.6982,1.603 3.6982,3.698 0,1.972 -1.6642,3.699 -3.6982,3.699 -0.4315,0 -0.8506,-0.123 -1.2328,-0.247 l 0,2.713 c 0,2.587 1.6889,4.931 3.6982,4.931 2.0094,0 3.6982,-2.344 3.6982,-4.931 l 0,-7.397 0,0 z m -7.3964,1.232 c 0,0.617 0.5548,1.233 1.2328,1.233 0.678,0 1.2327,-0.616 1.2327,-1.233 0,-0.739 -0.5547,-1.232 -1.2327,-1.232 -0.678,0 -1.2328,0.493 -1.2328,1.232 l 0,0 z m 3.6982,13.561 c -3.4023,0 -6.1636,-3.329 -6.1636,-7.396 l 0,-7.397 c 0,-4.069 2.7613,-7.397 6.1636,-7.397 3.4024,0 6.1637,3.328 6.1637,7.397 l 0,7.397 c 0,4.067 -2.7613,7.396 -6.1637,7.396 l 0,0 z"
         clip-rule="evenodd"
         id="path2914" />
    </clipPath>
  </defs>
  <sodipodi:namedview
     id="base"
     pagecolor="#ffffff"
     bordercolor="#666666"
     borderopacity="1.0"
     inkscape:pageopacity="0.0"
     inkscape:pageshadow="2"
     inkscape:zoom="0.12374369"
     inkscape:cx="275.34888"
     inkscape:cy="175.6135"
     inkscape:document-units="px"
     inkscape:current-layer="layer1"
     showgrid="false"
     fit-margin-top="0"
     fit-margin-left="0"
     fit-margin-right="0"
     fit-margin-bottom="0"
     inkscape:window-width="742"
     inkscape:window-height="443"
     inkscape:window-x="62"
     inkscape:window-y="24"
     inkscape:window-maximized="0" />
  <metadata
     id="metadata6349">
    <rdf:RDF>
      <cc:Work
         rdf:about="">
        <dc:format>image/svg+xml</dc:format>
        <dc:type
           rdf:resource="http://purl.org/dc/dcmitype/StillImage" />
        <dc:title></dc:title>
      </cc:Work>
    </rdf:RDF>
  </metadata>
  <g
     inkscape:label="Layer 1"
     inkscape:groupmode="layer"
     id="layer1"
     transform="translate(-503.2,-526.9908)">
    <g
       transform="matrix(1.6,0,0,-1.6,315.2,4078.1908)"
       id="g6285">
      <g
         id="g2858">
        <g
           clip-path="url(#clipPath2862)"
           id="g2860">
          <g
             transform="matrix(1,0,0,-1,120,2217)"
             id="g2866">
            <path
               inkscape:connector-curvature="0"
               id="path2868"
               style="fill:none;stroke:#ffffff;stroke-width:5;stroke-linecap:butt;stroke-linejoin:miter;stroke-miterlimit:10;stroke-opacity:1;stroke-dasharray:none"
               d="M 70.5,141 C 109.4361,141 141,109.4361 141,70.5 141,31.56393 109.4361,0 70.5,0 31.56393,0 0,31.56393 0,70.5 0,109.4361 31.56393,141 70.5,141 z" />
          </g>
        </g>
      </g>
      <g
         id="g2870">
        <g
           clip-path="url(#clipPath2874)"
           id="g2872">
          <g
             clip-path="url(#clipPath2880)"
             id="g2878">
            <path
               inkscape:connector-curvature="0"
               id="path2884"
               style="fill:#ffffff;fill-opacity:1;fill-rule:evenodd;stroke:none"
               d="m 158.2269,2188.485 64.2401,0 0,-83.97 -64.2401,0 0,83.97 z" />
          </g>
        </g>
      </g>
      <g
         id="g2886">
        <g
           clip-path="url(#clipPath2890)"
           id="g2888">
          <g
             clip-path="url(#clipPath2896)"
             id="g2894">
            <path
               inkscape:connector-curvature="0"
               id="path2900"
               style="fill:#ffffff;fill-opacity:1;fill-rule:evenodd;stroke:none"
               d="m 187.8124,2168.759 22.3273,0 0,-32.19 -22.3273,0 0,32.19 z" />
          </g>
        </g>
      </g>
      <g
         id="g2902">
        <g
           clip-path="url(#clipPath2906)"
           id="g2904">
          <g
             clip-path="url(#clipPath2912)"
             id="g2910">
            <path
               inkscape:connector-curvature="0"
               id="path2916"
               style="fill:#ffffff;fill-opacity:1;fill-rule:evenodd;stroke:none"
               d="m 170.5542,2168.759 22.3273,0 0,-32.19 -22.3273,0 0,32.19 z" />
          </g>
        </g>
      </g>
    </g>
  </g>
</svg>
