<?xml version="1.0" encoding="UTF-8" standalone="no"?>
<!-- Created with Inkscape (http://www.inkscape.org/) -->

<svg
   xmlns:dc="http://purl.org/dc/elements/1.1/"
   xmlns:cc="http://creativecommons.org/ns#"
   xmlns:rdf="http://www.w3.org/1999/02/22-rdf-syntax-ns#"
   xmlns:svg="http://www.w3.org/2000/svg"
   xmlns="http://www.w3.org/2000/svg"
   xmlns:sodipodi="http://sodipodi.sourceforge.net/DTD/sodipodi-0.dtd"
   xmlns:inkscape="http://www.inkscape.org/namespaces/inkscape"
   width="233.60001"
   height="233.60001"
   id="svg6206"
   version="1.1"
   inkscape:version="0.48.5 r10040"
   sodipodi:docname="vol_03.svg">
  <defs
     id="defs6208">
    <clipPath
       clipPathUnits="userSpaceOnUse"
       id="clipPath1156">
      <path
         inkscape:connector-curvature="0"
         d="m 0,3605 1300,0 L 1300,0 0,0 0,3605 z"
         clip-rule="evenodd"
         id="path1158" />
    </clipPath>
    <clipPath
       clipPathUnits="userSpaceOnUse"
       id="clipPath1168">
      <path
         inkscape:connector-curvature="0"
         d="m 0,3605 1300,0 L 1300,0 0,0 0,3605 z"
         clip-rule="evenodd"
         id="path1170" />
    </clipPath>
    <clipPath
       clipPathUnits="userSpaceOnUse"
       id="clipPath1174">
      <path
         inkscape:connector-curvature="0"
         d="m 866.0347,2143.638 c -16.4693,0 -29.8666,13.403 -29.8666,29.879 0,16.477 13.3973,29.881 29.8666,29.881 1.5574,0 3.0934,-0.117 4.5974,-0.352 -3.8507,-1.238 -8.6614,-3.448 -8.352,-6.755 0.16,-1.709 0.9386,-3.031 2.176,-3.725 1.28,-0.705 2.9226,-0.672 4.608,0.118 0.352,-0.823 0.3733,-3.383 0.0533,-6.062 -0.7147,-0.096 -1.504,-0.277 -2.3253,-0.469 -2.3467,-0.545 -5.0027,-1.163 -6.5067,0.032 -0.1173,0.363 -0.352,0.831 -0.8747,1.259 -1.2906,1.057 -3.6586,1.249 -7.04,0.576 -7.488,-1.494 -7.5733,-11.386 -7.5733,-11.814 0,-2.228 1.0667,-6.445 5.0987,-6.445 0.7146,0 1.4293,0.042 2.112,0.075 1.76,0.106 3.424,0.202 4.1813,-0.523 0.4693,-0.438 0.704,-1.29 0.704,-2.518 0,-0.288 0.1173,-0.556 0.32,-0.759 1.2267,-1.226 2.3573,-2.795 2.3787,-3.287 0,-0.415 -0.2774,-0.959 -0.5654,-1.535 -0.3626,-0.737 -0.7893,-1.569 -0.7893,-2.497 0,-1.516 2.7947,-7.791 5.1093,-7.791 5.5147,0 8.8,2.561 9.1094,7.076 0.832,0.383 2.2933,1.206 3.744,2.657 0.6613,0.651 0.9813,1.344 0.96,2.027 -0.0427,1.046 -0.8214,1.729 -1.3974,2.231 -0.1706,0.137 -0.416,0.363 -0.5333,0.469 0.256,0.373 0.9493,1.088 1.5147,1.676 2.4533,2.562 6.56,6.829 3.4986,9.902 -0.3306,0.321 -0.8213,0.406 -1.2373,0.203 -0.5867,-0.298 -1.92,-0.714 -2.6133,-0.34 -0.64,2.452 -1.3654,4.139 -2.1654,5.046 1.4187,0.885 4.5547,2.157 7.6907,1.377 0.2453,-0.064 0.5013,-0.032 0.736,0.075 3.9787,1.996 5.9093,6.221 6.7413,8.772 4.064,-5.101 6.5067,-11.557 6.5067,-18.58 0,-16.476 -13.3973,-29.879 -29.8667,-29.879 l 0,0 z m 21.696,50.39 c -0.3946,-1.6 -1.888,-6.478 -5.7066,-8.612 -4.672,0.961 -9.2054,-1.59 -10.1654,-2.763 -0.5226,-0.641 -0.384,-1.174 -0.2666,-1.441 0.1813,-0.383 0.544,-0.63 0.992,-0.672 0.48,-0.448 1.312,-2.529 1.8346,-4.589 0.0427,-0.192 0.1387,-0.364 0.2774,-0.492 1.312,-1.311 3.264,-0.938 4.3946,-0.564 0.5547,-1.537 -1.6,-3.971 -3.8826,-6.35 -1.5467,-1.601 -2.1654,-2.284 -2.1654,-3.096 0,-0.991 0.7254,-1.632 1.312,-2.144 0.224,-0.193 0.64,-0.545 0.672,-0.683 0,0 -0.032,-0.15 -0.3306,-0.458 -1.792,-1.792 -3.6054,-2.423 -3.616,-2.434 -0.4374,-0.15 -0.736,-0.554 -0.736,-1.013 0,-3.725 -2.3147,-5.635 -6.9014,-5.657 -0.9066,0.523 -3.0506,4.663 -3.072,5.657 0,0.426 0.2774,0.971 0.5654,1.546 0.3626,0.736 0.7893,1.57 0.7893,2.486 0,1.474 -1.8027,3.543 -2.6987,4.483 -0.0746,1.643 -0.5226,2.839 -1.3653,3.639 -1.4293,1.345 -3.5413,1.227 -5.7707,1.1 -0.6506,-0.032 -1.3226,-0.076 -1.9946,-0.076 -2.912,0 -2.9654,4.141 -2.9654,4.311 0,0.087 0.064,8.56 5.8667,9.723 4.2773,0.855 5.3867,-0.086 5.44,-0.298 0,-0.289 0.1173,-0.557 0.32,-0.759 2.2933,-2.295 5.856,-1.463 8.7147,-0.8 1.088,0.256 2.1013,0.491 2.7946,0.491 0.5334,0 0.9814,0.395 1.056,0.918 0.416,2.86 0.8427,7.843 -0.8853,9.091 -0.3307,0.236 -1.0347,0.566 -1.9947,0.086 -1.056,-0.533 -2.0586,-0.609 -2.7413,-0.223 -0.7893,0.426 -1.0347,1.354 -1.0987,2.059 -0.2026,2.176 6.112,4.546 10.624,5.517 4.896,-1.548 9.248,-4.333 12.704,-7.983 l 0,0 z m 2.0587,0.918 c -0.0213,0.032 -0.0533,0.054 -0.0747,0.074 -3.8293,4.237 -8.7893,7.428 -14.3786,9.136 -0.0214,0 -0.0427,0.01 -0.064,0.01 -2.9334,0.886 -6.0267,1.365 -9.2374,1.365 -17.6426,0 -32,-14.362 -32,-32.014 0,-17.65 14.3574,-32.014 32,-32.014 17.6427,0 32,14.364 32,32.014 0,8.239 -3.1253,15.752 -8.2453,21.429 l 0,0 z"
         clip-rule="evenodd"
         id="path1176" />
    </clipPath>
  </defs>
  <sodipodi:namedview
     id="base"
     pagecolor="#ffffff"
     bordercolor="#666666"
     borderopacity="1.0"
     inkscape:pageopacity="0.0"
     inkscape:pageshadow="2"
     inkscape:zoom="0.35"
     inkscape:cx="588.94287"
     inkscape:cy="-266.05718"
     inkscape:document-units="px"
     inkscape:current-layer="layer1"
     showgrid="false"
     fit-margin-top="0"
     fit-margin-left="0"
     fit-margin-right="0"
     fit-margin-bottom="0"
     inkscape:window-width="1538"
     inkscape:window-height="876"
     inkscape:window-x="62"
     inkscape:window-y="24"
     inkscape:window-maximized="1" />
  <metadata
     id="metadata6211">
    <rdf:RDF>
      <cc:Work
         rdf:about="">
        <dc:format>image/svg+xml</dc:format>
        <dc:type
           rdf:resource="http://purl.org/dc/dcmitype/StillImage" />
        <dc:title />
      </cc:Work>
    </rdf:RDF>
  </metadata>
  <g
     inkscape:label="Layer 1"
     inkscape:groupmode="layer"
     id="layer1"
     transform="translate(702.5143,-32.705)">
    <g
       transform="matrix(1.6,0,0,-1.6,-1973.7143,3631.905)"
       id="g6171">
      <g
         id="g1152">
        <g
           clip-path="url(#clipPath1156)"
           id="g1154">
          <g
             transform="matrix(1,0,0,-1,797,2247)"
             id="g1160">
            <path
               inkscape:connector-curvature="0"
               id="path1162"
               style="fill:none;stroke:#ffffff;stroke-width:5;stroke-linecap:butt;stroke-linejoin:miter;stroke-miterlimit:10;stroke-opacity:1;stroke-dasharray:none"
               d="M 70.5,141 C 109.4361,141 141,109.4361 141,70.5 141,31.56393 109.4361,0 70.5,0 31.56393,0 0,31.56393 0,70.5 0,109.4361 31.56393,141 70.5,141 z" />
          </g>
        </g>
      </g>
      <g
         id="g1164">
        <g
           clip-path="url(#clipPath1168)"
           id="g1166">
          <g
             clip-path="url(#clipPath1174)"
             id="g1172">
            <path
               inkscape:connector-curvature="0"
               id="path1178"
               style="fill:#ffffff;fill-opacity:1;fill-rule:evenodd;stroke:none"
               d="m 829.0347,2210.531 74,0 0,-74.028 -74,0 0,74.028 z" />
          </g>
        </g>
      </g>
    </g>
  </g>
</svg>
